<mxfile host="app.diagrams.net" modified="2021-12-11T16:30:38.631Z" agent="5.0 (Windows NT 10.0; Win64; x64) AppleWebKit/537.36 (KHTML, like Gecko) Chrome/96.0.4664.45 Safari/537.36" etag="7KywSgihOJYOwqEtTjYc" version="15.9.1" type="github">
  <diagram id="AeMCEDSl0HTIUyr0_DVo" name="Page-1">
    <mxGraphModel dx="6040" dy="5876" grid="1" gridSize="10" guides="1" tooltips="1" connect="1" arrows="1" fold="1" page="1" pageScale="1" pageWidth="827" pageHeight="1169" math="0" shadow="0">
      <root>
        <mxCell id="0" />
        <mxCell id="1" parent="0" />
        <mxCell id="Z-Bdekt9p_D5V7MtKwq2-11" value="" style="edgeStyle=none;rounded=0;orthogonalLoop=1;jettySize=auto;html=1;fontColor=#000000;endArrow=none;endFill=0;strokeColor=#000000;fontSize=19;fontStyle=0;fontFamily=Helvetica;" edge="1" parent="1" source="yuPLRcJc9Qwat-G4iUpo-1" target="Z-Bdekt9p_D5V7MtKwq2-3">
          <mxGeometry relative="1" as="geometry" />
        </mxCell>
        <mxCell id="yuPLRcJc9Qwat-G4iUpo-1" value="&lt;font size=&quot;1&quot;&gt;&lt;span style=&quot;font-size: 21px&quot;&gt;&lt;b&gt;BasicUser&lt;/b&gt;&lt;/span&gt;&lt;/font&gt;" style="rounded=0;whiteSpace=wrap;html=1;strokeWidth=2;fontSize=19;strokeColor=#000000;fontColor=#000000;fontStyle=0;fontFamily=Helvetica;" parent="1" vertex="1">
          <mxGeometry x="240" y="210" width="110" height="40" as="geometry" />
        </mxCell>
        <mxCell id="yuPLRcJc9Qwat-G4iUpo-21" style="edgeStyle=none;rounded=0;orthogonalLoop=1;jettySize=auto;html=1;exitX=1;exitY=1;exitDx=0;exitDy=0;entryX=0.25;entryY=0;entryDx=0;entryDy=0;fontFamily=Helvetica;fontSize=19;endArrow=none;endFill=0;strokeColor=#000000;fontColor=#000000;fontStyle=0" parent="1" source="yuPLRcJc9Qwat-G4iUpo-2" target="yuPLRcJc9Qwat-G4iUpo-1" edge="1">
          <mxGeometry relative="1" as="geometry" />
        </mxCell>
        <mxCell id="yuPLRcJc9Qwat-G4iUpo-2" value="&lt;div class=&quot;database-node-click-target&quot; style=&quot;align-items: center; box-sizing: border-box; cursor: pointer; display: flex; min-height: 32px; padding: 0px 16px 0px 12px; position: relative; font-size: 19px;&quot;&gt;&lt;div class=&quot;database-key-value&quot; style=&quot;align-items: flex-start; display: flex; justify-content: flex-start; padding: 6px 0px; font-size: 19px;&quot;&gt;&lt;span class=&quot;database-key&quot; style=&quot;display: inline-block; margin-right: 8px; font-size: 19px;&quot;&gt;&lt;font style=&quot;font-size: 19px;&quot;&gt;kycInfo&lt;/font&gt;&lt;/span&gt;&lt;/div&gt;&lt;/div&gt;" style="ellipse;whiteSpace=wrap;html=1;fontSize=19;strokeWidth=2;strokeColor=#000000;fontColor=#000000;fontStyle=0;fontFamily=Helvetica;" parent="1" vertex="1">
          <mxGeometry x="140" y="100" width="100" height="60" as="geometry" />
        </mxCell>
        <mxCell id="yuPLRcJc9Qwat-G4iUpo-22" style="edgeStyle=none;rounded=0;orthogonalLoop=1;jettySize=auto;html=1;exitX=0.5;exitY=1;exitDx=0;exitDy=0;entryX=0.5;entryY=0;entryDx=0;entryDy=0;fontFamily=Helvetica;fontSize=19;endArrow=none;endFill=0;strokeColor=#000000;fontColor=#000000;fontStyle=0" parent="1" source="yuPLRcJc9Qwat-G4iUpo-3" target="yuPLRcJc9Qwat-G4iUpo-2" edge="1">
          <mxGeometry relative="1" as="geometry" />
        </mxCell>
        <mxCell id="yuPLRcJc9Qwat-G4iUpo-3" value="&lt;div class=&quot;database-node-click-target&quot; style=&quot;align-items: center; box-sizing: border-box; cursor: pointer; display: flex; min-height: 32px; padding: 0px 16px 0px 12px; position: relative; font-size: 19px;&quot;&gt;&lt;div class=&quot;database-key-value&quot; style=&quot;align-items: flex-start; display: flex; justify-content: flex-start; padding: 6px 0px; font-size: 19px;&quot;&gt;&lt;span class=&quot;database-key&quot; style=&quot;display: inline-block; margin-right: 8px; font-size: 19px;&quot;&gt;&lt;font style=&quot;font-size: 19px;&quot;&gt;image&lt;/font&gt;&lt;/span&gt;&lt;/div&gt;&lt;/div&gt;" style="ellipse;whiteSpace=wrap;html=1;fontSize=19;strokeWidth=2;strokeColor=#000000;fontColor=#000000;fontStyle=0;fontFamily=Helvetica;" parent="1" vertex="1">
          <mxGeometry x="50" y="-30" width="100" height="60" as="geometry" />
        </mxCell>
        <mxCell id="yuPLRcJc9Qwat-G4iUpo-23" style="edgeStyle=none;rounded=0;orthogonalLoop=1;jettySize=auto;html=1;exitX=1;exitY=1;exitDx=0;exitDy=0;entryX=0;entryY=0;entryDx=0;entryDy=0;fontFamily=Helvetica;fontSize=19;endArrow=none;endFill=0;strokeColor=#000000;fontColor=#000000;fontStyle=0" parent="1" source="yuPLRcJc9Qwat-G4iUpo-4" target="yuPLRcJc9Qwat-G4iUpo-2" edge="1">
          <mxGeometry relative="1" as="geometry" />
        </mxCell>
        <mxCell id="yuPLRcJc9Qwat-G4iUpo-4" value="&lt;div class=&quot;database-node-click-target&quot; style=&quot;align-items: center; box-sizing: border-box; cursor: pointer; display: flex; min-height: 32px; padding: 0px 16px 0px 12px; position: relative; font-size: 19px;&quot;&gt;&lt;div class=&quot;database-key-value&quot; style=&quot;align-items: flex-start; display: flex; justify-content: flex-start; padding: 6px 0px; font-size: 19px;&quot;&gt;&lt;span class=&quot;database-key&quot; style=&quot;display: inline-block; margin-right: 8px; font-size: 19px;&quot;&gt;&lt;font style=&quot;font-size: 19px;&quot;&gt;female&lt;/font&gt;&lt;/span&gt;&lt;/div&gt;&lt;/div&gt;" style="ellipse;whiteSpace=wrap;html=1;fontSize=19;strokeWidth=2;strokeColor=#000000;fontColor=#000000;fontStyle=0;fontFamily=Helvetica;" parent="1" vertex="1">
          <mxGeometry x="-40" y="30" width="100" height="60" as="geometry" />
        </mxCell>
        <mxCell id="yuPLRcJc9Qwat-G4iUpo-24" style="edgeStyle=none;rounded=0;orthogonalLoop=1;jettySize=auto;html=1;exitX=1;exitY=0.5;exitDx=0;exitDy=0;fontFamily=Helvetica;fontSize=19;endArrow=none;endFill=0;strokeColor=#000000;fontColor=#000000;fontStyle=0" parent="1" source="yuPLRcJc9Qwat-G4iUpo-5" target="yuPLRcJc9Qwat-G4iUpo-2" edge="1">
          <mxGeometry relative="1" as="geometry" />
        </mxCell>
        <mxCell id="yuPLRcJc9Qwat-G4iUpo-5" value="&lt;div class=&quot;database-node-click-target&quot; style=&quot;align-items: center; box-sizing: border-box; cursor: pointer; display: flex; min-height: 32px; padding: 0px 16px 0px 12px; position: relative; font-size: 19px;&quot;&gt;&lt;div class=&quot;database-key-value&quot; style=&quot;align-items: flex-start; display: flex; justify-content: flex-start; padding: 6px 0px; font-size: 19px;&quot;&gt;&lt;span class=&quot;database-key&quot; style=&quot;display: inline-block; margin-right: 8px; font-size: 19px;&quot;&gt;&lt;font style=&quot;font-size: 19px;&quot;&gt;id_number&lt;/font&gt;&lt;/span&gt;&lt;/div&gt;&lt;/div&gt;" style="ellipse;whiteSpace=wrap;html=1;fontSize=19;strokeWidth=2;strokeColor=#000000;fontColor=#000000;fontStyle=0;fontFamily=Helvetica;" parent="1" vertex="1">
          <mxGeometry x="-90" y="120" width="150" height="60" as="geometry" />
        </mxCell>
        <mxCell id="yuPLRcJc9Qwat-G4iUpo-18" style="edgeStyle=none;rounded=0;orthogonalLoop=1;jettySize=auto;html=1;exitX=1;exitY=0.5;exitDx=0;exitDy=0;entryX=0;entryY=0.5;entryDx=0;entryDy=0;fontFamily=Helvetica;fontSize=19;endArrow=none;endFill=0;strokeColor=#000000;fontColor=#000000;fontStyle=0" parent="1" source="yuPLRcJc9Qwat-G4iUpo-7" target="yuPLRcJc9Qwat-G4iUpo-1" edge="1">
          <mxGeometry relative="1" as="geometry" />
        </mxCell>
        <mxCell id="yuPLRcJc9Qwat-G4iUpo-7" value="&lt;div class=&quot;database-node-click-target&quot; style=&quot;align-items: center; box-sizing: border-box; cursor: pointer; display: flex; min-height: 32px; padding: 0px 16px 0px 12px; position: relative; font-size: 19px;&quot;&gt;&lt;div class=&quot;database-key-value&quot; style=&quot;align-items: flex-start; display: flex; justify-content: flex-start; padding: 6px 0px; font-size: 19px;&quot;&gt;&lt;span class=&quot;database-key&quot; style=&quot;display: inline-block; margin-right: 8px; font-size: 19px;&quot;&gt;&lt;span style=&quot;font-size: 19px;&quot;&gt;day_of_birth&lt;/span&gt;&lt;/span&gt;&lt;/div&gt;&lt;/div&gt;" style="ellipse;whiteSpace=wrap;html=1;fontSize=19;strokeWidth=2;strokeColor=#000000;fontColor=#000000;fontStyle=0;fontFamily=Helvetica;" parent="1" vertex="1">
          <mxGeometry x="-60" y="200" width="130" height="60" as="geometry" />
        </mxCell>
        <mxCell id="yuPLRcJc9Qwat-G4iUpo-16" style="edgeStyle=none;rounded=0;orthogonalLoop=1;jettySize=auto;html=1;exitX=0;exitY=0.5;exitDx=0;exitDy=0;fontFamily=Helvetica;fontSize=19;endArrow=none;endFill=0;strokeColor=#000000;fontColor=#000000;fontStyle=0;entryX=1;entryY=0.5;entryDx=0;entryDy=0;" parent="1" source="yuPLRcJc9Qwat-G4iUpo-9" edge="1" target="yuPLRcJc9Qwat-G4iUpo-1">
          <mxGeometry relative="1" as="geometry">
            <mxPoint x="330" y="230" as="targetPoint" />
          </mxGeometry>
        </mxCell>
        <mxCell id="yuPLRcJc9Qwat-G4iUpo-9" value="&lt;div class=&quot;database-node-click-target&quot; style=&quot;align-items: center; box-sizing: border-box; cursor: pointer; display: flex; min-height: 32px; padding: 0px 16px 0px 12px; position: relative; font-size: 19px;&quot;&gt;&lt;div class=&quot;database-key-value&quot; style=&quot;align-items: flex-start; display: flex; justify-content: flex-start; padding: 6px 0px; font-size: 19px;&quot;&gt;&lt;span class=&quot;database-key&quot; style=&quot;display: inline-block; margin-right: 8px; font-size: 19px;&quot;&gt;star&lt;/span&gt;&lt;/div&gt;&lt;/div&gt;" style="ellipse;whiteSpace=wrap;html=1;fontSize=19;strokeWidth=2;strokeColor=#000000;fontColor=#000000;fontStyle=0;fontFamily=Helvetica;" parent="1" vertex="1">
          <mxGeometry x="550" y="90" width="160" height="60" as="geometry" />
        </mxCell>
        <mxCell id="yuPLRcJc9Qwat-G4iUpo-14" style="rounded=0;orthogonalLoop=1;jettySize=auto;html=1;exitX=0;exitY=1;exitDx=0;exitDy=0;entryX=1;entryY=0;entryDx=0;entryDy=0;fontFamily=Helvetica;fontSize=19;endArrow=none;endFill=0;strokeColor=#000000;fontColor=#000000;fontStyle=0" parent="1" source="yuPLRcJc9Qwat-G4iUpo-11" target="yuPLRcJc9Qwat-G4iUpo-1" edge="1">
          <mxGeometry relative="1" as="geometry" />
        </mxCell>
        <mxCell id="yuPLRcJc9Qwat-G4iUpo-11" value="&lt;span style=&quot;font-size: 19px;&quot;&gt;UID&lt;/span&gt;" style="ellipse;whiteSpace=wrap;html=1;fontSize=19;strokeWidth=2;strokeColor=#000000;fontColor=#000000;fontStyle=0;fontFamily=Helvetica;" parent="1" vertex="1">
          <mxGeometry x="430" y="-10" width="140" height="70" as="geometry" />
        </mxCell>
        <mxCell id="yuPLRcJc9Qwat-G4iUpo-28" style="edgeStyle=none;rounded=0;orthogonalLoop=1;jettySize=auto;html=1;exitX=0.5;exitY=1;exitDx=0;exitDy=0;fontFamily=Helvetica;fontSize=19;endArrow=none;endFill=0;entryX=0.5;entryY=0;entryDx=0;entryDy=0;strokeColor=#000000;fontColor=#000000;fontStyle=0" parent="1" source="yuPLRcJc9Qwat-G4iUpo-25" target="yuPLRcJc9Qwat-G4iUpo-2" edge="1">
          <mxGeometry relative="1" as="geometry">
            <mxPoint x="230" y="20" as="targetPoint" />
          </mxGeometry>
        </mxCell>
        <mxCell id="yuPLRcJc9Qwat-G4iUpo-25" value="&lt;div class=&quot;database-node-click-target&quot; style=&quot;align-items: center; box-sizing: border-box; cursor: pointer; display: flex; min-height: 32px; padding: 0px 16px 0px 12px; position: relative; font-size: 19px;&quot;&gt;&lt;div class=&quot;database-key-value&quot; style=&quot;align-items: flex-start; display: flex; justify-content: flex-start; padding: 6px 0px; font-size: 19px;&quot;&gt;&lt;span class=&quot;database-key&quot; style=&quot;display: inline-block; margin-right: 8px; font-size: 19px;&quot;&gt;&lt;font style=&quot;font-size: 19px;&quot;&gt;back&lt;/font&gt;&lt;/span&gt;&lt;/div&gt;&lt;/div&gt;" style="ellipse;whiteSpace=wrap;html=1;fontSize=19;strokeWidth=2;strokeColor=#000000;fontColor=#000000;fontStyle=0;fontFamily=Helvetica;" parent="1" vertex="1">
          <mxGeometry x="160" y="-50" width="100" height="60" as="geometry" />
        </mxCell>
        <mxCell id="yuPLRcJc9Qwat-G4iUpo-27" style="edgeStyle=none;rounded=0;orthogonalLoop=1;jettySize=auto;html=1;exitX=0;exitY=1;exitDx=0;exitDy=0;entryX=1;entryY=0;entryDx=0;entryDy=0;fontFamily=Helvetica;fontSize=19;endArrow=none;endFill=0;strokeColor=#000000;fontColor=#000000;fontStyle=0" parent="1" source="yuPLRcJc9Qwat-G4iUpo-26" target="yuPLRcJc9Qwat-G4iUpo-2" edge="1">
          <mxGeometry relative="1" as="geometry" />
        </mxCell>
        <mxCell id="yuPLRcJc9Qwat-G4iUpo-26" value="&lt;div class=&quot;database-node-click-target&quot; style=&quot;align-items: center; box-sizing: border-box; cursor: pointer; display: flex; min-height: 32px; padding: 0px 16px 0px 12px; position: relative; font-size: 19px;&quot;&gt;&lt;div class=&quot;database-key-value&quot; style=&quot;align-items: flex-start; display: flex; justify-content: flex-start; padding: 6px 0px; font-size: 19px;&quot;&gt;&lt;span class=&quot;database-key&quot; style=&quot;display: inline-block; margin-right: 8px; font-size: 19px;&quot;&gt;&lt;font style=&quot;font-size: 19px;&quot;&gt;front&lt;/font&gt;&lt;/span&gt;&lt;/div&gt;&lt;/div&gt;" style="ellipse;whiteSpace=wrap;html=1;fontSize=19;strokeWidth=2;strokeColor=#000000;fontColor=#000000;fontStyle=0;fontFamily=Helvetica;" parent="1" vertex="1">
          <mxGeometry x="270" y="-40" width="100" height="60" as="geometry" />
        </mxCell>
        <mxCell id="yuPLRcJc9Qwat-G4iUpo-31" value="&lt;div class=&quot;database-node-click-target&quot; style=&quot;align-items: center; box-sizing: border-box; cursor: pointer; display: flex; min-height: 32px; padding: 0px 16px 0px 12px; position: relative; font-size: 19px;&quot;&gt;&lt;div class=&quot;database-key-value&quot; style=&quot;align-items: flex-start; display: flex; justify-content: flex-start; padding: 6px 0px; font-size: 19px;&quot;&gt;&lt;span class=&quot;database-key&quot; style=&quot;display: inline-block; margin-right: 8px; font-size: 19px;&quot;&gt;time&lt;/span&gt;&lt;/div&gt;&lt;/div&gt;" style="ellipse;whiteSpace=wrap;html=1;fontSize=19;strokeWidth=2;strokeColor=#000000;fontColor=#000000;fontStyle=0;fontFamily=Helvetica;" parent="1" vertex="1">
          <mxGeometry x="100" y="910" width="120" height="60" as="geometry" />
        </mxCell>
        <mxCell id="yuPLRcJc9Qwat-G4iUpo-32" value="&lt;div class=&quot;database-node-click-target&quot; style=&quot;align-items: center; box-sizing: border-box; cursor: pointer; display: flex; min-height: 32px; padding: 0px 16px 0px 12px; position: relative; font-size: 19px;&quot;&gt;&lt;div class=&quot;database-key-value&quot; style=&quot;align-items: flex-start; display: flex; justify-content: flex-start; padding: 6px 0px; font-size: 19px;&quot;&gt;&lt;span class=&quot;database-key&quot; style=&quot;display: inline-block; margin-right: 8px; font-size: 19px;&quot;&gt;status&lt;/span&gt;&lt;/div&gt;&lt;/div&gt;" style="ellipse;whiteSpace=wrap;html=1;fontSize=19;strokeWidth=2;strokeColor=#000000;fontColor=#000000;fontStyle=0;fontFamily=Helvetica;" parent="1" vertex="1">
          <mxGeometry x="260" y="920" width="100" height="60" as="geometry" />
        </mxCell>
        <mxCell id="Z-Bdekt9p_D5V7MtKwq2-1" value="&lt;div class=&quot;database-node-click-target&quot; style=&quot;align-items: center; box-sizing: border-box; cursor: pointer; display: flex; min-height: 32px; padding: 0px 16px 0px 12px; position: relative; font-size: 19px;&quot;&gt;&lt;div class=&quot;database-key-value&quot; style=&quot;align-items: flex-start; display: flex; justify-content: flex-start; padding: 6px 0px; font-size: 19px;&quot;&gt;&lt;span class=&quot;database-key&quot; style=&quot;display: inline-block; margin-right: 8px; font-size: 19px;&quot;&gt;uid&lt;/span&gt;&lt;/div&gt;&lt;/div&gt;" style="ellipse;whiteSpace=wrap;html=1;fontSize=19;strokeWidth=2;strokeColor=#000000;fontColor=#000000;fontStyle=0;fontFamily=Helvetica;" vertex="1" parent="1">
          <mxGeometry x="380" y="910" width="100" height="60" as="geometry" />
        </mxCell>
        <mxCell id="Z-Bdekt9p_D5V7MtKwq2-6" value="" style="edgeStyle=none;rounded=0;orthogonalLoop=1;jettySize=auto;html=1;fontColor=#000000;endArrow=none;endFill=0;strokeColor=#000000;fontSize=19;fontStyle=0;fontFamily=Helvetica;" edge="1" parent="1" source="Z-Bdekt9p_D5V7MtKwq2-3" target="Z-Bdekt9p_D5V7MtKwq2-5">
          <mxGeometry relative="1" as="geometry" />
        </mxCell>
        <mxCell id="Z-Bdekt9p_D5V7MtKwq2-8" value="" style="edgeStyle=none;rounded=0;orthogonalLoop=1;jettySize=auto;html=1;fontColor=#000000;endArrow=none;endFill=0;strokeColor=#000000;fontSize=19;fontStyle=0;fontFamily=Helvetica;" edge="1" parent="1" source="Z-Bdekt9p_D5V7MtKwq2-3" target="Z-Bdekt9p_D5V7MtKwq2-7">
          <mxGeometry relative="1" as="geometry" />
        </mxCell>
        <mxCell id="Z-Bdekt9p_D5V7MtKwq2-10" value="" style="edgeStyle=none;rounded=0;orthogonalLoop=1;jettySize=auto;html=1;fontColor=#000000;endArrow=none;endFill=0;strokeColor=#000000;fontSize=19;fontStyle=0;fontFamily=Helvetica;" edge="1" parent="1" source="Z-Bdekt9p_D5V7MtKwq2-3" target="Z-Bdekt9p_D5V7MtKwq2-9">
          <mxGeometry relative="1" as="geometry" />
        </mxCell>
        <mxCell id="Z-Bdekt9p_D5V7MtKwq2-13" value="" style="edgeStyle=none;rounded=0;orthogonalLoop=1;jettySize=auto;html=1;fontColor=#000000;endArrow=none;endFill=0;strokeColor=#000000;fontSize=19;fontStyle=0;fontFamily=Helvetica;" edge="1" parent="1" source="Z-Bdekt9p_D5V7MtKwq2-3" target="Z-Bdekt9p_D5V7MtKwq2-12">
          <mxGeometry relative="1" as="geometry" />
        </mxCell>
        <mxCell id="Z-Bdekt9p_D5V7MtKwq2-3" value="&lt;div class=&quot;database-node-click-target&quot; style=&quot;align-items: center; box-sizing: border-box; cursor: pointer; display: flex; min-height: 32px; padding: 0px 16px 0px 12px; position: relative; font-size: 19px;&quot;&gt;&lt;div class=&quot;database-key-value&quot; style=&quot;align-items: flex-start; display: flex; justify-content: flex-start; padding: 6px 0px; font-size: 19px;&quot;&gt;&lt;span class=&quot;database-key&quot; style=&quot;display: inline-block; margin-right: 8px; font-size: 19px;&quot;&gt;currentUser&lt;br style=&quot;font-size: 19px;&quot;&gt;&lt;/span&gt;&lt;/div&gt;&lt;/div&gt;" style="ellipse;whiteSpace=wrap;html=1;fontSize=19;strokeWidth=2;strokeColor=#000000;fontColor=#000000;fontStyle=0;fontFamily=Helvetica;" vertex="1" parent="1">
          <mxGeometry x="310" y="300" width="130" height="60" as="geometry" />
        </mxCell>
        <mxCell id="Z-Bdekt9p_D5V7MtKwq2-5" value="&lt;div class=&quot;database-node-click-target&quot; style=&quot;align-items: center; box-sizing: border-box; cursor: pointer; display: flex; min-height: 32px; padding: 0px 16px 0px 12px; position: relative; font-size: 19px;&quot;&gt;&lt;div class=&quot;database-key-value&quot; style=&quot;align-items: flex-start; display: flex; justify-content: flex-start; padding: 6px 0px; font-size: 19px;&quot;&gt;&lt;span class=&quot;database-key&quot; style=&quot;display: inline-block; margin-right: 8px; font-size: 19px;&quot;&gt;displayName&lt;/span&gt;&lt;/div&gt;&lt;/div&gt;" style="ellipse;whiteSpace=wrap;html=1;fontSize=19;strokeWidth=2;strokeColor=#000000;fontColor=#000000;fontStyle=0;fontFamily=Helvetica;" vertex="1" parent="1">
          <mxGeometry x="570" y="210" width="160" height="60" as="geometry" />
        </mxCell>
        <mxCell id="Z-Bdekt9p_D5V7MtKwq2-7" value="&lt;div class=&quot;database-node-click-target&quot; style=&quot;align-items: center; box-sizing: border-box; cursor: pointer; display: flex; min-height: 32px; padding: 0px 16px 0px 12px; position: relative; font-size: 19px;&quot;&gt;&lt;div class=&quot;database-key-value&quot; style=&quot;align-items: flex-start; display: flex; justify-content: flex-start; padding: 6px 0px; font-size: 19px;&quot;&gt;&lt;span class=&quot;database-key&quot; style=&quot;display: inline-block; margin-right: 8px; font-size: 19px;&quot;&gt;email&lt;/span&gt;&lt;/div&gt;&lt;/div&gt;" style="ellipse;whiteSpace=wrap;html=1;fontSize=19;strokeWidth=2;strokeColor=#000000;fontColor=#000000;fontStyle=0;fontFamily=Helvetica;" vertex="1" parent="1">
          <mxGeometry x="620" y="300" width="160" height="60" as="geometry" />
        </mxCell>
        <mxCell id="Z-Bdekt9p_D5V7MtKwq2-9" value="&lt;div class=&quot;database-node-click-target&quot; style=&quot;align-items: center; box-sizing: border-box; cursor: pointer; display: flex; min-height: 32px; padding: 0px 16px 0px 12px; position: relative; font-size: 19px;&quot;&gt;&lt;div class=&quot;database-key-value&quot; style=&quot;align-items: flex-start; display: flex; justify-content: flex-start; padding: 6px 0px; font-size: 19px;&quot;&gt;&lt;span class=&quot;database-key&quot; style=&quot;display: inline-block; margin-right: 8px; font-size: 19px;&quot;&gt;&lt;h3 id=&quot;emailverified&quot; style=&quot;box-sizing: inherit; margin: 0px -40px 0px -20px; overflow: hidden; text-overflow: ellipsis; padding: 0px 40px 10px 20px; border-bottom: none; color: rgb(32, 33, 36); font-size: 19px;&quot;&gt;&lt;span class=&quot;devsite-heading&quot; style=&quot;box-sizing: inherit; font-size: 19px;&quot;&gt;email&lt;wbr style=&quot;box-sizing: inherit; font-size: 19px;&quot;&gt;Verified&lt;/span&gt;&lt;/h3&gt;&lt;/span&gt;&lt;/div&gt;&lt;/div&gt;" style="ellipse;whiteSpace=wrap;html=1;fontSize=19;strokeWidth=2;strokeColor=#000000;fontColor=#000000;fontStyle=0;fontFamily=Helvetica;" vertex="1" parent="1">
          <mxGeometry x="600" y="400" width="210" height="60" as="geometry" />
        </mxCell>
        <mxCell id="Z-Bdekt9p_D5V7MtKwq2-12" value="&lt;div class=&quot;database-node-click-target&quot; style=&quot;align-items: center; box-sizing: border-box; cursor: pointer; display: flex; min-height: 32px; padding: 0px 16px 0px 12px; position: relative; font-size: 19px;&quot;&gt;&lt;div class=&quot;database-key-value&quot; style=&quot;align-items: flex-start; display: flex; justify-content: flex-start; padding: 6px 0px; font-size: 19px;&quot;&gt;&lt;span class=&quot;database-key&quot; style=&quot;display: inline-block; margin-right: 8px; font-size: 19px;&quot;&gt;&lt;h3 id=&quot;phonenumber&quot; style=&quot;box-sizing: inherit; margin: 0px -40px 0px -20px; overflow: hidden; text-overflow: ellipsis; padding: 0px 40px 10px 20px; border-bottom: none; color: rgb(32, 33, 36); font-size: 19px;&quot;&gt;&lt;span class=&quot;devsite-heading&quot; style=&quot;box-sizing: inherit; font-size: 19px;&quot;&gt;phone&lt;wbr style=&quot;box-sizing: inherit; font-size: 19px;&quot;&gt;Number&lt;/span&gt;&lt;/h3&gt;&lt;/span&gt;&lt;/div&gt;&lt;/div&gt;" style="ellipse;whiteSpace=wrap;html=1;fontSize=19;strokeWidth=2;strokeColor=#000000;fontColor=#000000;fontStyle=0;fontFamily=Helvetica;" vertex="1" parent="1">
          <mxGeometry x="400" y="470" width="240" height="60" as="geometry" />
        </mxCell>
        <mxCell id="Z-Bdekt9p_D5V7MtKwq2-16" value="" style="edgeStyle=none;rounded=0;orthogonalLoop=1;jettySize=auto;html=1;fontColor=#000000;endArrow=none;endFill=0;strokeColor=#000000;fontSize=19;fontStyle=0;fontFamily=Helvetica;" edge="1" parent="1" source="Z-Bdekt9p_D5V7MtKwq2-14" target="Z-Bdekt9p_D5V7MtKwq2-3">
          <mxGeometry relative="1" as="geometry" />
        </mxCell>
        <mxCell id="Z-Bdekt9p_D5V7MtKwq2-14" value="&lt;div class=&quot;database-node-click-target&quot; style=&quot;align-items: center; box-sizing: border-box; cursor: pointer; display: flex; min-height: 32px; padding: 0px 16px 0px 12px; position: relative; font-size: 19px;&quot;&gt;&lt;div class=&quot;database-key-value&quot; style=&quot;align-items: flex-start; display: flex; justify-content: flex-start; padding: 6px 0px; font-size: 19px;&quot;&gt;&lt;span class=&quot;database-key&quot; style=&quot;display: inline-block; margin-right: 8px; font-size: 19px;&quot;&gt;&lt;h3 id=&quot;photourl&quot; style=&quot;box-sizing: inherit; margin: 0px -40px 0px -20px; overflow: hidden; text-overflow: ellipsis; padding: 0px 40px 10px 20px; border-bottom: none; color: rgb(32, 33, 36); font-size: 19px;&quot;&gt;&lt;span class=&quot;devsite-heading&quot; style=&quot;box-sizing: inherit; font-size: 19px;&quot;&gt;photoURL&lt;/span&gt;&lt;/h3&gt;&lt;/span&gt;&lt;/div&gt;&lt;/div&gt;" style="ellipse;whiteSpace=wrap;html=1;fontSize=19;strokeWidth=2;strokeColor=#000000;fontColor=#000000;fontStyle=0;fontFamily=Helvetica;" vertex="1" parent="1">
          <mxGeometry x="200" y="470" width="160" height="60" as="geometry" />
        </mxCell>
        <mxCell id="Z-Bdekt9p_D5V7MtKwq2-18" value="" style="edgeStyle=none;rounded=0;orthogonalLoop=1;jettySize=auto;html=1;fontColor=#000000;endArrow=none;endFill=0;strokeColor=#000000;fontSize=19;fontStyle=0;fontFamily=Helvetica;" edge="1" parent="1" source="Z-Bdekt9p_D5V7MtKwq2-17" target="Z-Bdekt9p_D5V7MtKwq2-3">
          <mxGeometry relative="1" as="geometry" />
        </mxCell>
        <mxCell id="Z-Bdekt9p_D5V7MtKwq2-17" value="&lt;div class=&quot;database-node-click-target&quot; style=&quot;align-items: center ; box-sizing: border-box ; cursor: pointer ; display: flex ; min-height: 32px ; padding: 0px 16px 0px 12px ; position: relative ; font-size: 19px&quot;&gt;&lt;div class=&quot;database-key-value&quot; style=&quot;align-items: flex-start ; display: flex ; justify-content: flex-start ; padding: 6px 0px ; font-size: 19px&quot;&gt;&lt;span class=&quot;database-key&quot; style=&quot;display: inline-block ; margin-right: 8px ; font-size: 19px&quot;&gt;&lt;h3 id=&quot;photourl&quot; style=&quot;box-sizing: inherit ; margin: 0px -40px 0px -20px ; overflow: hidden ; text-overflow: ellipsis ; padding: 0px 40px 10px 20px ; border-bottom: none ; color: rgb(32 , 33 , 36) ; font-size: 19px&quot;&gt;&lt;span class=&quot;devsite-heading&quot; style=&quot;box-sizing: inherit ; font-size: 19px&quot;&gt;accessToken&lt;/span&gt;&lt;/h3&gt;&lt;/span&gt;&lt;/div&gt;&lt;/div&gt;" style="ellipse;whiteSpace=wrap;html=1;fontSize=19;strokeWidth=2;strokeColor=#000000;fontColor=#000000;fontStyle=0;fontFamily=Helvetica;" vertex="1" parent="1">
          <mxGeometry x="50" y="400" width="160" height="60" as="geometry" />
        </mxCell>
        <mxCell id="Z-Bdekt9p_D5V7MtKwq2-22" value="" style="edgeStyle=none;rounded=0;orthogonalLoop=1;jettySize=auto;html=1;fontFamily=Helvetica;fontSize=19;fontColor=#000000;endArrow=none;endFill=0;strokeColor=#000000;fontStyle=0" edge="1" parent="1" source="Z-Bdekt9p_D5V7MtKwq2-21" target="Z-Bdekt9p_D5V7MtKwq2-3">
          <mxGeometry relative="1" as="geometry" />
        </mxCell>
        <mxCell id="Z-Bdekt9p_D5V7MtKwq2-21" value="&lt;div class=&quot;database-node-click-target&quot; style=&quot;align-items: center ; box-sizing: border-box ; cursor: pointer ; display: flex ; min-height: 32px ; padding: 0px 16px 0px 12px ; position: relative ; font-size: 19px&quot;&gt;&lt;div class=&quot;database-key-value&quot; style=&quot;align-items: flex-start ; display: flex ; justify-content: flex-start ; padding: 6px 0px ; font-size: 19px&quot;&gt;&lt;span class=&quot;database-key&quot; style=&quot;display: inline-block ; margin-right: 8px ; font-size: 19px&quot;&gt;&lt;h3 id=&quot;photourl&quot; style=&quot;box-sizing: inherit ; margin: 0px -40px 0px -20px ; overflow: hidden ; text-overflow: ellipsis ; padding: 0px 40px 10px 20px ; border-bottom: none ; color: rgb(32 , 33 , 36) ; font-size: 19px&quot;&gt;&lt;span class=&quot;devsite-heading&quot; style=&quot;box-sizing: inherit ; font-size: 19px&quot;&gt;createdAt&lt;/span&gt;&lt;/h3&gt;&lt;/span&gt;&lt;/div&gt;&lt;/div&gt;" style="ellipse;whiteSpace=wrap;html=1;fontSize=19;strokeWidth=2;strokeColor=#000000;fontColor=#000000;fontStyle=0;fontFamily=Helvetica;" vertex="1" parent="1">
          <mxGeometry x="-10" y="310" width="160" height="60" as="geometry" />
        </mxCell>
        <mxCell id="Z-Bdekt9p_D5V7MtKwq2-24" style="edgeStyle=none;rounded=0;orthogonalLoop=1;jettySize=auto;html=1;exitX=0.5;exitY=1;exitDx=0;exitDy=0;entryX=1;entryY=0;entryDx=0;entryDy=0;fontFamily=Helvetica;fontSize=21;fontColor=#000000;endArrow=none;endFill=0;strokeColor=#000000;" edge="1" parent="1" source="Z-Bdekt9p_D5V7MtKwq2-23" target="yuPLRcJc9Qwat-G4iUpo-31">
          <mxGeometry relative="1" as="geometry" />
        </mxCell>
        <mxCell id="Z-Bdekt9p_D5V7MtKwq2-25" style="edgeStyle=none;rounded=0;orthogonalLoop=1;jettySize=auto;html=1;exitX=0.5;exitY=1;exitDx=0;exitDy=0;entryX=0.5;entryY=0;entryDx=0;entryDy=0;fontFamily=Helvetica;fontSize=21;fontColor=#000000;endArrow=none;endFill=0;strokeColor=#000000;" edge="1" parent="1" source="Z-Bdekt9p_D5V7MtKwq2-23" target="yuPLRcJc9Qwat-G4iUpo-32">
          <mxGeometry relative="1" as="geometry" />
        </mxCell>
        <mxCell id="Z-Bdekt9p_D5V7MtKwq2-26" style="edgeStyle=none;rounded=0;orthogonalLoop=1;jettySize=auto;html=1;exitX=0.5;exitY=1;exitDx=0;exitDy=0;entryX=0.5;entryY=0;entryDx=0;entryDy=0;fontFamily=Helvetica;fontSize=21;fontColor=#000000;endArrow=none;endFill=0;strokeColor=#000000;" edge="1" parent="1" source="Z-Bdekt9p_D5V7MtKwq2-23" target="Z-Bdekt9p_D5V7MtKwq2-1">
          <mxGeometry relative="1" as="geometry" />
        </mxCell>
        <mxCell id="Z-Bdekt9p_D5V7MtKwq2-23" value="&#xa;&#xa;&lt;span style=&quot;color: rgb(0, 0, 0); font-family: helvetica; font-size: 19px; font-style: normal; font-weight: 400; letter-spacing: normal; text-align: center; text-indent: 0px; text-transform: none; word-spacing: 0px; background-color: rgb(248, 249, 250); display: inline; float: none;&quot;&gt;historyVoucher&lt;/span&gt;&#xa;&#xa;" style="rounded=0;whiteSpace=wrap;html=1;fontFamily=Helvetica;fontSize=21;fontColor=#000000;strokeColor=#000000;" vertex="1" parent="1">
          <mxGeometry x="220" y="760" width="160" height="60" as="geometry" />
        </mxCell>
        <mxCell id="Z-Bdekt9p_D5V7MtKwq2-27" value="&lt;div class=&quot;database-node-click-target&quot; style=&quot;align-items: center ; box-sizing: border-box ; cursor: pointer ; display: flex ; min-height: 32px ; padding: 0px 16px 0px 12px ; position: relative ; font-size: 19px&quot;&gt;&lt;div class=&quot;database-key-value&quot; style=&quot;align-items: flex-start ; display: flex ; justify-content: flex-start ; padding: 6px 0px ; font-size: 19px&quot;&gt;&lt;span class=&quot;database-key&quot; style=&quot;display: inline-block ; margin-right: 8px ; font-size: 19px&quot;&gt;imageProfile&lt;/span&gt;&lt;/div&gt;&lt;/div&gt;" style="ellipse;whiteSpace=wrap;html=1;fontSize=19;strokeWidth=2;strokeColor=#000000;fontColor=#000000;fontStyle=0;fontFamily=Helvetica;" vertex="1" parent="1">
          <mxGeometry x="1160" y="400" width="140" height="60" as="geometry" />
        </mxCell>
        <mxCell id="Z-Bdekt9p_D5V7MtKwq2-28" value="&lt;div class=&quot;database-node-click-target&quot; style=&quot;align-items: center ; box-sizing: border-box ; cursor: pointer ; display: flex ; min-height: 32px ; padding: 0px 16px 0px 12px ; position: relative ; font-size: 19px&quot;&gt;&lt;div class=&quot;database-key-value&quot; style=&quot;align-items: flex-start ; display: flex ; justify-content: flex-start ; padding: 6px 0px ; font-size: 19px&quot;&gt;&lt;span class=&quot;database-key&quot; style=&quot;display: inline-block ; margin-right: 8px ; font-size: 19px&quot;&gt;name&lt;/span&gt;&lt;/div&gt;&lt;/div&gt;" style="ellipse;whiteSpace=wrap;html=1;fontSize=19;strokeWidth=2;strokeColor=#000000;fontColor=#000000;fontStyle=0;fontFamily=Helvetica;" vertex="1" parent="1">
          <mxGeometry x="1040" y="470" width="100" height="60" as="geometry" />
        </mxCell>
        <mxCell id="Z-Bdekt9p_D5V7MtKwq2-29" value="&lt;div class=&quot;database-node-click-target&quot; style=&quot;align-items: center ; box-sizing: border-box ; cursor: pointer ; display: flex ; min-height: 32px ; padding: 0px 16px 0px 12px ; position: relative ; font-size: 19px&quot;&gt;&lt;div class=&quot;database-key-value&quot; style=&quot;align-items: flex-start ; display: flex ; justify-content: flex-start ; padding: 6px 0px ; font-size: 19px&quot;&gt;&lt;span class=&quot;database-key&quot; style=&quot;display: inline-block ; margin-right: 8px ; font-size: 19px&quot;&gt;id&lt;/span&gt;&lt;/div&gt;&lt;/div&gt;" style="ellipse;whiteSpace=wrap;html=1;fontSize=19;strokeWidth=2;strokeColor=#000000;fontColor=#000000;fontStyle=0;fontFamily=Helvetica;" vertex="1" parent="1">
          <mxGeometry x="1010" y="550" width="100" height="60" as="geometry" />
        </mxCell>
        <mxCell id="Z-Bdekt9p_D5V7MtKwq2-30" style="edgeStyle=none;rounded=0;orthogonalLoop=1;jettySize=auto;html=1;exitX=0.5;exitY=1;exitDx=0;exitDy=0;entryX=0.5;entryY=1;entryDx=0;entryDy=0;fontFamily=Helvetica;fontSize=21;fontColor=#000000;endArrow=none;endFill=0;strokeColor=#000000;fontStyle=0;strokeWidth=2;" edge="1" parent="1" source="Z-Bdekt9p_D5V7MtKwq2-33" target="Z-Bdekt9p_D5V7MtKwq2-27">
          <mxGeometry relative="1" as="geometry" />
        </mxCell>
        <mxCell id="Z-Bdekt9p_D5V7MtKwq2-31" style="edgeStyle=none;rounded=0;orthogonalLoop=1;jettySize=auto;html=1;entryX=1;entryY=0.5;entryDx=0;entryDy=0;fontFamily=Helvetica;fontSize=21;fontColor=#000000;endArrow=none;endFill=0;strokeColor=#000000;fontStyle=0;strokeWidth=2;" edge="1" parent="1" source="Z-Bdekt9p_D5V7MtKwq2-33" target="Z-Bdekt9p_D5V7MtKwq2-28">
          <mxGeometry relative="1" as="geometry" />
        </mxCell>
        <mxCell id="Z-Bdekt9p_D5V7MtKwq2-32" style="edgeStyle=none;rounded=0;orthogonalLoop=1;jettySize=auto;html=1;fontFamily=Helvetica;fontSize=21;fontColor=#000000;endArrow=none;endFill=0;strokeColor=#000000;fontStyle=0;strokeWidth=2;" edge="1" parent="1" source="Z-Bdekt9p_D5V7MtKwq2-33" target="Z-Bdekt9p_D5V7MtKwq2-29">
          <mxGeometry relative="1" as="geometry" />
        </mxCell>
        <mxCell id="Z-Bdekt9p_D5V7MtKwq2-35" style="edgeStyle=none;rounded=0;orthogonalLoop=1;jettySize=auto;html=1;entryX=0;entryY=0.5;entryDx=0;entryDy=0;fontFamily=Helvetica;fontSize=21;fontColor=#000000;endArrow=none;endFill=0;strokeColor=#000000;fontStyle=0;strokeWidth=2;" edge="1" parent="1" source="Z-Bdekt9p_D5V7MtKwq2-33" target="Z-Bdekt9p_D5V7MtKwq2-34">
          <mxGeometry relative="1" as="geometry" />
        </mxCell>
        <mxCell id="Z-Bdekt9p_D5V7MtKwq2-33" value="&lt;span&gt;&lt;b&gt;Merchant&lt;/b&gt;&lt;/span&gt;" style="rounded=0;whiteSpace=wrap;html=1;fontFamily=Helvetica;fontSize=21;fontColor=#000000;strokeColor=#000000;fontStyle=0;strokeWidth=2;" vertex="1" parent="1">
          <mxGeometry x="1220" y="540" width="160" height="60" as="geometry" />
        </mxCell>
        <mxCell id="Z-Bdekt9p_D5V7MtKwq2-39" style="edgeStyle=none;rounded=0;orthogonalLoop=1;jettySize=auto;html=1;fontFamily=Helvetica;fontSize=21;fontColor=#000000;endArrow=none;endFill=0;strokeColor=#000000;fontStyle=0;strokeWidth=2;" edge="1" parent="1" source="Z-Bdekt9p_D5V7MtKwq2-34" target="Z-Bdekt9p_D5V7MtKwq2-38">
          <mxGeometry relative="1" as="geometry" />
        </mxCell>
        <mxCell id="Z-Bdekt9p_D5V7MtKwq2-41" style="edgeStyle=none;rounded=0;orthogonalLoop=1;jettySize=auto;html=1;fontFamily=Helvetica;fontSize=21;fontColor=#000000;endArrow=none;endFill=0;strokeColor=#000000;fontStyle=0;strokeWidth=2;" edge="1" parent="1" source="Z-Bdekt9p_D5V7MtKwq2-34" target="Z-Bdekt9p_D5V7MtKwq2-40">
          <mxGeometry relative="1" as="geometry" />
        </mxCell>
        <mxCell id="Z-Bdekt9p_D5V7MtKwq2-34" value="&lt;div class=&quot;database-node-click-target&quot; style=&quot;align-items: center ; box-sizing: border-box ; cursor: pointer ; display: flex ; min-height: 32px ; padding: 0px 16px 0px 12px ; position: relative ; font-size: 19px&quot;&gt;&lt;div class=&quot;database-key-value&quot; style=&quot;align-items: flex-start ; display: flex ; justify-content: flex-start ; padding: 6px 0px ; font-size: 19px&quot;&gt;&lt;span class=&quot;database-key&quot; style=&quot;display: inline-block ; margin-right: 8px ; font-size: 19px&quot;&gt;kycInfo&lt;/span&gt;&lt;/div&gt;&lt;/div&gt;" style="ellipse;whiteSpace=wrap;html=1;fontSize=19;strokeWidth=2;strokeColor=#000000;fontColor=#000000;fontStyle=0;fontFamily=Helvetica;" vertex="1" parent="1">
          <mxGeometry x="1370" y="430" width="140" height="60" as="geometry" />
        </mxCell>
        <mxCell id="Z-Bdekt9p_D5V7MtKwq2-37" style="edgeStyle=none;rounded=0;orthogonalLoop=1;jettySize=auto;html=1;fontFamily=Helvetica;fontSize=21;fontColor=#000000;endArrow=none;endFill=0;strokeColor=#000000;fontStyle=0;strokeWidth=2;" edge="1" parent="1" source="Z-Bdekt9p_D5V7MtKwq2-36" target="Z-Bdekt9p_D5V7MtKwq2-33">
          <mxGeometry relative="1" as="geometry" />
        </mxCell>
        <mxCell id="Z-Bdekt9p_D5V7MtKwq2-36" value="&lt;div class=&quot;database-node-click-target&quot; style=&quot;align-items: center ; box-sizing: border-box ; cursor: pointer ; display: flex ; min-height: 32px ; padding: 0px 16px 0px 12px ; position: relative ; font-size: 19px&quot;&gt;&lt;div class=&quot;database-key-value&quot; style=&quot;align-items: flex-start ; display: flex ; justify-content: flex-start ; padding: 6px 0px ; font-size: 19px&quot;&gt;&lt;span class=&quot;database-key&quot; style=&quot;display: inline-block ; margin-right: 8px ; font-size: 19px&quot;&gt;detail&lt;/span&gt;&lt;/div&gt;&lt;/div&gt;" style="ellipse;whiteSpace=wrap;html=1;fontSize=19;strokeWidth=2;strokeColor=#000000;fontColor=#000000;fontStyle=0;fontFamily=Helvetica;" vertex="1" parent="1">
          <mxGeometry x="1060" y="670" width="100" height="60" as="geometry" />
        </mxCell>
        <mxCell id="Z-Bdekt9p_D5V7MtKwq2-38" value="&lt;div class=&quot;database-node-click-target&quot; style=&quot;align-items: center ; box-sizing: border-box ; cursor: pointer ; display: flex ; min-height: 32px ; padding: 0px 16px 0px 12px ; position: relative ; font-size: 19px&quot;&gt;&lt;div class=&quot;database-key-value&quot; style=&quot;align-items: flex-start ; display: flex ; justify-content: flex-start ; padding: 6px 0px ; font-size: 19px&quot;&gt;&lt;span class=&quot;database-key&quot; style=&quot;display: inline-block ; margin-right: 8px ; font-size: 19px&quot;&gt;tax_code&lt;/span&gt;&lt;/div&gt;&lt;/div&gt;" style="ellipse;whiteSpace=wrap;html=1;fontSize=19;strokeWidth=2;strokeColor=#000000;fontColor=#000000;fontStyle=0;fontFamily=Helvetica;" vertex="1" parent="1">
          <mxGeometry x="1420" y="330" width="140" height="60" as="geometry" />
        </mxCell>
        <mxCell id="Z-Bdekt9p_D5V7MtKwq2-40" value="&lt;div class=&quot;database-node-click-target&quot; style=&quot;align-items: center ; box-sizing: border-box ; cursor: pointer ; display: flex ; min-height: 32px ; padding: 0px 16px 0px 12px ; position: relative ; font-size: 19px&quot;&gt;&lt;div class=&quot;database-key-value&quot; style=&quot;align-items: flex-start ; display: flex ; justify-content: flex-start ; padding: 6px 0px ; font-size: 19px&quot;&gt;&lt;span class=&quot;database-key&quot; style=&quot;display: inline-block ; margin-right: 8px ; font-size: 19px&quot;&gt;imagefront&lt;/span&gt;&lt;/div&gt;&lt;/div&gt;" style="ellipse;whiteSpace=wrap;html=1;fontSize=19;strokeWidth=2;strokeColor=#000000;fontColor=#000000;fontStyle=0;fontFamily=Helvetica;" vertex="1" parent="1">
          <mxGeometry x="1560" y="400" width="140" height="60" as="geometry" />
        </mxCell>
        <mxCell id="Z-Bdekt9p_D5V7MtKwq2-42" value="&lt;div class=&quot;database-node-click-target&quot; style=&quot;align-items: center ; box-sizing: border-box ; cursor: pointer ; display: flex ; min-height: 32px ; padding: 0px 16px 0px 12px ; position: relative ; font-size: 19px&quot;&gt;&lt;div class=&quot;database-key-value&quot; style=&quot;align-items: flex-start ; display: flex ; justify-content: flex-start ; padding: 6px 0px ; font-size: 19px&quot;&gt;&lt;span class=&quot;database-key&quot; style=&quot;display: inline-block ; margin-right: 8px ; font-size: 19px&quot;&gt;id&lt;/span&gt;&lt;/div&gt;&lt;/div&gt;" style="ellipse;whiteSpace=wrap;html=1;fontSize=19;strokeWidth=2;strokeColor=#000000;fontColor=#000000;fontStyle=0;fontFamily=Helvetica;" vertex="1" parent="1">
          <mxGeometry x="1150" y="930" width="140" height="60" as="geometry" />
        </mxCell>
        <mxCell id="Z-Bdekt9p_D5V7MtKwq2-43" value="&lt;div class=&quot;database-node-click-target&quot; style=&quot;align-items: center ; box-sizing: border-box ; cursor: pointer ; display: flex ; min-height: 32px ; padding: 0px 16px 0px 12px ; position: relative ; font-size: 19px&quot;&gt;&lt;div class=&quot;database-key-value&quot; style=&quot;align-items: flex-start ; display: flex ; justify-content: flex-start ; padding: 6px 0px ; font-size: 19px&quot;&gt;&lt;span class=&quot;database-key&quot; style=&quot;display: inline-block ; margin-right: 8px ; font-size: 19px&quot;&gt;image&lt;/span&gt;&lt;/div&gt;&lt;/div&gt;" style="ellipse;whiteSpace=wrap;html=1;fontSize=19;strokeWidth=2;strokeColor=#000000;fontColor=#000000;fontStyle=0;fontFamily=Helvetica;" vertex="1" parent="1">
          <mxGeometry x="1000" y="1040" width="100" height="60" as="geometry" />
        </mxCell>
        <mxCell id="Z-Bdekt9p_D5V7MtKwq2-44" value="&lt;div class=&quot;database-node-click-target&quot; style=&quot;align-items: center ; box-sizing: border-box ; cursor: pointer ; display: flex ; min-height: 32px ; padding: 0px 16px 0px 12px ; position: relative ; font-size: 19px&quot;&gt;&lt;div class=&quot;database-key-value&quot; style=&quot;align-items: flex-start ; display: flex ; justify-content: flex-start ; padding: 6px 0px ; font-size: 19px&quot;&gt;&lt;span class=&quot;database-key&quot; style=&quot;display: inline-block ; margin-right: 8px ; font-size: 19px&quot;&gt;address&lt;/span&gt;&lt;/div&gt;&lt;/div&gt;" style="ellipse;whiteSpace=wrap;html=1;fontSize=19;strokeWidth=2;strokeColor=#000000;fontColor=#000000;fontStyle=0;fontFamily=Helvetica;" vertex="1" parent="1">
          <mxGeometry x="1060" y="1170" width="100" height="60" as="geometry" />
        </mxCell>
        <mxCell id="Z-Bdekt9p_D5V7MtKwq2-45" style="edgeStyle=none;rounded=0;orthogonalLoop=1;jettySize=auto;html=1;exitX=0.5;exitY=1;exitDx=0;exitDy=0;entryX=0.5;entryY=1;entryDx=0;entryDy=0;fontFamily=Helvetica;fontSize=21;fontColor=#000000;endArrow=none;endFill=0;strokeColor=#000000;" edge="1" parent="1" source="Z-Bdekt9p_D5V7MtKwq2-49" target="Z-Bdekt9p_D5V7MtKwq2-42">
          <mxGeometry relative="1" as="geometry" />
        </mxCell>
        <mxCell id="Z-Bdekt9p_D5V7MtKwq2-46" style="edgeStyle=none;rounded=0;orthogonalLoop=1;jettySize=auto;html=1;exitX=0;exitY=0.5;exitDx=0;exitDy=0;entryX=1;entryY=0.5;entryDx=0;entryDy=0;fontFamily=Helvetica;fontSize=21;fontColor=#000000;endArrow=none;endFill=0;strokeColor=#000000;" edge="1" parent="1" source="Z-Bdekt9p_D5V7MtKwq2-49" target="Z-Bdekt9p_D5V7MtKwq2-43">
          <mxGeometry relative="1" as="geometry" />
        </mxCell>
        <mxCell id="Z-Bdekt9p_D5V7MtKwq2-47" style="edgeStyle=none;rounded=0;orthogonalLoop=1;jettySize=auto;html=1;exitX=0.25;exitY=1;exitDx=0;exitDy=0;entryX=0.5;entryY=0;entryDx=0;entryDy=0;fontFamily=Helvetica;fontSize=21;fontColor=#000000;endArrow=none;endFill=0;strokeColor=#000000;" edge="1" parent="1" source="Z-Bdekt9p_D5V7MtKwq2-49" target="Z-Bdekt9p_D5V7MtKwq2-44">
          <mxGeometry relative="1" as="geometry" />
        </mxCell>
        <mxCell id="Z-Bdekt9p_D5V7MtKwq2-48" style="edgeStyle=none;rounded=0;orthogonalLoop=1;jettySize=auto;html=1;exitX=1;exitY=0.5;exitDx=0;exitDy=0;entryX=0;entryY=0.5;entryDx=0;entryDy=0;fontFamily=Helvetica;fontSize=21;fontColor=#000000;endArrow=none;endFill=0;strokeColor=#000000;" edge="1" parent="1" source="Z-Bdekt9p_D5V7MtKwq2-49" target="Z-Bdekt9p_D5V7MtKwq2-52">
          <mxGeometry relative="1" as="geometry" />
        </mxCell>
        <mxCell id="Z-Bdekt9p_D5V7MtKwq2-49" value="&lt;b&gt;Branch&lt;/b&gt;" style="rounded=0;whiteSpace=wrap;html=1;fontFamily=Helvetica;fontSize=21;fontColor=#000000;strokeColor=#000000;" vertex="1" parent="1">
          <mxGeometry x="1170" y="1040" width="160" height="60" as="geometry" />
        </mxCell>
        <mxCell id="Z-Bdekt9p_D5V7MtKwq2-52" value="&lt;div class=&quot;database-node-click-target&quot; style=&quot;align-items: center ; box-sizing: border-box ; cursor: pointer ; display: flex ; min-height: 32px ; padding: 0px 16px 0px 12px ; position: relative ; font-size: 19px&quot;&gt;&lt;div class=&quot;database-key-value&quot; style=&quot;align-items: flex-start ; display: flex ; justify-content: flex-start ; padding: 6px 0px ; font-size: 19px&quot;&gt;&lt;span class=&quot;database-key&quot; style=&quot;display: inline-block ; margin-right: 8px ; font-size: 19px&quot;&gt;employeeId&lt;/span&gt;&lt;/div&gt;&lt;/div&gt;" style="ellipse;whiteSpace=wrap;html=1;fontSize=19;strokeWidth=2;strokeColor=#000000;fontColor=#000000;fontStyle=0;fontFamily=Helvetica;" vertex="1" parent="1">
          <mxGeometry x="1470" y="1040" width="140" height="60" as="geometry" />
        </mxCell>
        <mxCell id="Z-Bdekt9p_D5V7MtKwq2-53" style="edgeStyle=none;rounded=0;orthogonalLoop=1;jettySize=auto;html=1;exitX=0.5;exitY=0;exitDx=0;exitDy=0;entryX=0.75;entryY=1;entryDx=0;entryDy=0;fontFamily=Helvetica;fontSize=21;fontColor=#000000;endArrow=none;endFill=0;strokeColor=#000000;" edge="1" parent="1" source="Z-Bdekt9p_D5V7MtKwq2-54" target="Z-Bdekt9p_D5V7MtKwq2-49">
          <mxGeometry relative="1" as="geometry" />
        </mxCell>
        <mxCell id="Z-Bdekt9p_D5V7MtKwq2-54" value="&lt;div class=&quot;database-node-click-target&quot; style=&quot;align-items: center ; box-sizing: border-box ; cursor: pointer ; display: flex ; min-height: 32px ; padding: 0px 16px 0px 12px ; position: relative ; font-size: 19px&quot;&gt;&lt;div class=&quot;database-key-value&quot; style=&quot;align-items: flex-start ; display: flex ; justify-content: flex-start ; padding: 6px 0px ; font-size: 19px&quot;&gt;&lt;span class=&quot;database-key&quot; style=&quot;display: inline-block ; margin-right: 8px ; font-size: 19px&quot;&gt;location&lt;/span&gt;&lt;/div&gt;&lt;/div&gt;" style="ellipse;whiteSpace=wrap;html=1;fontSize=19;strokeWidth=2;strokeColor=#000000;fontColor=#000000;fontStyle=0;fontFamily=Helvetica;" vertex="1" parent="1">
          <mxGeometry x="1270" y="1170" width="100" height="60" as="geometry" />
        </mxCell>
        <mxCell id="Z-Bdekt9p_D5V7MtKwq2-58" style="edgeStyle=none;rounded=0;orthogonalLoop=1;jettySize=auto;html=1;exitX=0;exitY=1;exitDx=0;exitDy=0;entryX=1;entryY=0;entryDx=0;entryDy=0;fontFamily=Helvetica;fontSize=21;fontColor=#000000;endArrow=none;endFill=0;strokeColor=#000000;" edge="1" parent="1" source="Z-Bdekt9p_D5V7MtKwq2-57" target="Z-Bdekt9p_D5V7MtKwq2-49">
          <mxGeometry relative="1" as="geometry" />
        </mxCell>
        <mxCell id="Z-Bdekt9p_D5V7MtKwq2-57" value="&lt;div class=&quot;database-node-click-target&quot; style=&quot;align-items: center ; box-sizing: border-box ; cursor: pointer ; display: flex ; min-height: 32px ; padding: 0px 16px 0px 12px ; position: relative ; font-size: 19px&quot;&gt;&lt;div class=&quot;database-key-value&quot; style=&quot;align-items: flex-start ; display: flex ; justify-content: flex-start ; padding: 6px 0px ; font-size: 19px&quot;&gt;&lt;span class=&quot;database-key&quot; style=&quot;display: inline-block ; margin-right: 8px ; font-size: 19px&quot;&gt;phonenumber&lt;/span&gt;&lt;/div&gt;&lt;/div&gt;" style="ellipse;whiteSpace=wrap;html=1;fontSize=19;strokeWidth=2;strokeColor=#000000;fontColor=#000000;fontStyle=0;fontFamily=Helvetica;" vertex="1" parent="1">
          <mxGeometry x="1360" y="940" width="140" height="60" as="geometry" />
        </mxCell>
        <mxCell id="Z-Bdekt9p_D5V7MtKwq2-60" style="edgeStyle=none;rounded=0;orthogonalLoop=1;jettySize=auto;html=1;exitX=0;exitY=0.5;exitDx=0;exitDy=0;entryX=1;entryY=0.75;entryDx=0;entryDy=0;fontFamily=Helvetica;fontSize=21;fontColor=#000000;endArrow=none;endFill=0;strokeColor=#000000;" edge="1" parent="1" source="Z-Bdekt9p_D5V7MtKwq2-59" target="Z-Bdekt9p_D5V7MtKwq2-49">
          <mxGeometry relative="1" as="geometry" />
        </mxCell>
        <mxCell id="Z-Bdekt9p_D5V7MtKwq2-59" value="&lt;div class=&quot;database-node-click-target&quot; style=&quot;align-items: center ; box-sizing: border-box ; cursor: pointer ; display: flex ; min-height: 32px ; padding: 0px 16px 0px 12px ; position: relative ; font-size: 19px&quot;&gt;&lt;div class=&quot;database-key-value&quot; style=&quot;align-items: flex-start ; display: flex ; justify-content: flex-start ; padding: 6px 0px ; font-size: 19px&quot;&gt;&lt;span class=&quot;database-key&quot; style=&quot;display: inline-block ; margin-right: 8px ; font-size: 19px&quot;&gt;nameBranch&lt;/span&gt;&lt;/div&gt;&lt;/div&gt;" style="ellipse;whiteSpace=wrap;html=1;fontSize=19;strokeWidth=2;strokeColor=#000000;fontColor=#000000;fontStyle=0;fontFamily=Helvetica;" vertex="1" parent="1">
          <mxGeometry x="1410" y="1130" width="140" height="60" as="geometry" />
        </mxCell>
        <mxCell id="Z-Bdekt9p_D5V7MtKwq2-61" value="&lt;div class=&quot;database-node-click-target&quot; style=&quot;align-items: center ; box-sizing: border-box ; cursor: pointer ; display: flex ; min-height: 32px ; padding: 0px 16px 0px 12px ; position: relative ; font-size: 19px&quot;&gt;&lt;div class=&quot;database-key-value&quot; style=&quot;align-items: flex-start ; display: flex ; justify-content: flex-start ; padding: 6px 0px ; font-size: 19px&quot;&gt;&lt;span class=&quot;database-key&quot; style=&quot;display: inline-block ; margin-right: 8px ; font-size: 19px&quot;&gt;id&lt;/span&gt;&lt;/div&gt;&lt;/div&gt;" style="ellipse;whiteSpace=wrap;html=1;fontSize=19;strokeWidth=2;strokeColor=#000000;fontColor=#000000;fontStyle=0;fontFamily=Helvetica;" vertex="1" parent="1">
          <mxGeometry x="1210" y="1270" width="140" height="60" as="geometry" />
        </mxCell>
        <mxCell id="Z-Bdekt9p_D5V7MtKwq2-62" value="&lt;div class=&quot;database-node-click-target&quot; style=&quot;align-items: center ; box-sizing: border-box ; cursor: pointer ; display: flex ; min-height: 32px ; padding: 0px 16px 0px 12px ; position: relative ; font-size: 19px&quot;&gt;&lt;div class=&quot;database-key-value&quot; style=&quot;align-items: flex-start ; display: flex ; justify-content: flex-start ; padding: 6px 0px ; font-size: 19px&quot;&gt;&lt;span class=&quot;database-key&quot; style=&quot;display: inline-block ; margin-right: 8px ; font-size: 19px&quot;&gt;image&lt;/span&gt;&lt;/div&gt;&lt;/div&gt;" style="ellipse;whiteSpace=wrap;html=1;fontSize=19;strokeWidth=2;strokeColor=#000000;fontColor=#000000;fontStyle=0;fontFamily=Helvetica;" vertex="1" parent="1">
          <mxGeometry x="1030" y="1370" width="100" height="60" as="geometry" />
        </mxCell>
        <mxCell id="Z-Bdekt9p_D5V7MtKwq2-63" value="&lt;div class=&quot;database-node-click-target&quot; style=&quot;align-items: center ; box-sizing: border-box ; cursor: pointer ; display: flex ; min-height: 32px ; padding: 0px 16px 0px 12px ; position: relative ; font-size: 19px&quot;&gt;&lt;div class=&quot;database-key-value&quot; style=&quot;align-items: flex-start ; display: flex ; justify-content: flex-start ; padding: 6px 0px ; font-size: 19px&quot;&gt;&lt;span class=&quot;database-key&quot; style=&quot;display: inline-block ; margin-right: 8px ; font-size: 19px&quot;&gt;email&lt;/span&gt;&lt;/div&gt;&lt;/div&gt;" style="ellipse;whiteSpace=wrap;html=1;fontSize=19;strokeWidth=2;strokeColor=#000000;fontColor=#000000;fontStyle=0;fontFamily=Helvetica;" vertex="1" parent="1">
          <mxGeometry x="1090" y="1500" width="100" height="60" as="geometry" />
        </mxCell>
        <mxCell id="Z-Bdekt9p_D5V7MtKwq2-64" style="edgeStyle=none;rounded=0;orthogonalLoop=1;jettySize=auto;html=1;exitX=0.5;exitY=1;exitDx=0;exitDy=0;entryX=0.5;entryY=1;entryDx=0;entryDy=0;fontFamily=Helvetica;fontSize=21;fontColor=#000000;endArrow=none;endFill=0;strokeColor=#000000;" edge="1" parent="1" source="Z-Bdekt9p_D5V7MtKwq2-68" target="Z-Bdekt9p_D5V7MtKwq2-61">
          <mxGeometry relative="1" as="geometry" />
        </mxCell>
        <mxCell id="Z-Bdekt9p_D5V7MtKwq2-65" style="edgeStyle=none;rounded=0;orthogonalLoop=1;jettySize=auto;html=1;exitX=0;exitY=0.5;exitDx=0;exitDy=0;entryX=1;entryY=0.5;entryDx=0;entryDy=0;fontFamily=Helvetica;fontSize=21;fontColor=#000000;endArrow=none;endFill=0;strokeColor=#000000;" edge="1" parent="1" source="Z-Bdekt9p_D5V7MtKwq2-68" target="Z-Bdekt9p_D5V7MtKwq2-62">
          <mxGeometry relative="1" as="geometry" />
        </mxCell>
        <mxCell id="Z-Bdekt9p_D5V7MtKwq2-66" style="edgeStyle=none;rounded=0;orthogonalLoop=1;jettySize=auto;html=1;exitX=0.25;exitY=1;exitDx=0;exitDy=0;entryX=0.5;entryY=0;entryDx=0;entryDy=0;fontFamily=Helvetica;fontSize=21;fontColor=#000000;endArrow=none;endFill=0;strokeColor=#000000;" edge="1" parent="1" source="Z-Bdekt9p_D5V7MtKwq2-68" target="Z-Bdekt9p_D5V7MtKwq2-63">
          <mxGeometry relative="1" as="geometry" />
        </mxCell>
        <mxCell id="Z-Bdekt9p_D5V7MtKwq2-68" value="&lt;b&gt;Employee&lt;/b&gt;" style="rounded=0;whiteSpace=wrap;html=1;fontFamily=Helvetica;fontSize=21;fontColor=#000000;strokeColor=#000000;" vertex="1" parent="1">
          <mxGeometry x="1200" y="1370" width="160" height="60" as="geometry" />
        </mxCell>
        <mxCell id="Z-Bdekt9p_D5V7MtKwq2-70" style="edgeStyle=none;rounded=0;orthogonalLoop=1;jettySize=auto;html=1;exitX=0.5;exitY=0;exitDx=0;exitDy=0;entryX=0.75;entryY=1;entryDx=0;entryDy=0;fontFamily=Helvetica;fontSize=21;fontColor=#000000;endArrow=none;endFill=0;strokeColor=#000000;" edge="1" parent="1" source="Z-Bdekt9p_D5V7MtKwq2-71" target="Z-Bdekt9p_D5V7MtKwq2-68">
          <mxGeometry relative="1" as="geometry" />
        </mxCell>
        <mxCell id="Z-Bdekt9p_D5V7MtKwq2-71" value="&lt;div class=&quot;database-node-click-target&quot; style=&quot;align-items: center ; box-sizing: border-box ; cursor: pointer ; display: flex ; min-height: 32px ; padding: 0px 16px 0px 12px ; position: relative ; font-size: 19px&quot;&gt;&lt;div class=&quot;database-key-value&quot; style=&quot;align-items: flex-start ; display: flex ; justify-content: flex-start ; padding: 6px 0px ; font-size: 19px&quot;&gt;&lt;span class=&quot;database-key&quot; style=&quot;display: inline-block ; margin-right: 8px ; font-size: 19px&quot;&gt;position&lt;/span&gt;&lt;/div&gt;&lt;/div&gt;" style="ellipse;whiteSpace=wrap;html=1;fontSize=19;strokeWidth=2;strokeColor=#000000;fontColor=#000000;fontStyle=0;fontFamily=Helvetica;" vertex="1" parent="1">
          <mxGeometry x="1300" y="1500" width="100" height="60" as="geometry" />
        </mxCell>
        <mxCell id="Z-Bdekt9p_D5V7MtKwq2-74" style="edgeStyle=none;rounded=0;orthogonalLoop=1;jettySize=auto;html=1;exitX=0;exitY=0.5;exitDx=0;exitDy=0;entryX=1;entryY=0.5;entryDx=0;entryDy=0;fontFamily=Helvetica;fontSize=21;fontColor=#000000;endArrow=none;endFill=0;strokeColor=#000000;" edge="1" parent="1" source="Z-Bdekt9p_D5V7MtKwq2-75" target="Z-Bdekt9p_D5V7MtKwq2-68">
          <mxGeometry relative="1" as="geometry" />
        </mxCell>
        <mxCell id="Z-Bdekt9p_D5V7MtKwq2-75" value="&lt;div class=&quot;database-node-click-target&quot; style=&quot;align-items: center ; box-sizing: border-box ; cursor: pointer ; display: flex ; min-height: 32px ; padding: 0px 16px 0px 12px ; position: relative ; font-size: 19px&quot;&gt;&lt;div class=&quot;database-key-value&quot; style=&quot;align-items: flex-start ; display: flex ; justify-content: flex-start ; padding: 6px 0px ; font-size: 19px&quot;&gt;&lt;span class=&quot;database-key&quot; style=&quot;display: inline-block ; margin-right: 8px ; font-size: 19px&quot;&gt;name&lt;/span&gt;&lt;/div&gt;&lt;/div&gt;" style="ellipse;whiteSpace=wrap;html=1;fontSize=19;strokeWidth=2;strokeColor=#000000;fontColor=#000000;fontStyle=0;fontFamily=Helvetica;" vertex="1" parent="1">
          <mxGeometry x="1460" y="1450" width="140" height="60" as="geometry" />
        </mxCell>
        <mxCell id="Z-Bdekt9p_D5V7MtKwq2-77" style="edgeStyle=none;rounded=0;orthogonalLoop=1;jettySize=auto;html=1;exitX=0;exitY=0.5;exitDx=0;exitDy=0;entryX=1;entryY=0.5;entryDx=0;entryDy=0;fontFamily=Helvetica;fontSize=21;fontColor=#000000;endArrow=none;endFill=0;strokeColor=#000000;" edge="1" parent="1" source="Z-Bdekt9p_D5V7MtKwq2-76" target="Z-Bdekt9p_D5V7MtKwq2-68">
          <mxGeometry relative="1" as="geometry" />
        </mxCell>
        <mxCell id="Z-Bdekt9p_D5V7MtKwq2-76" value="&lt;div class=&quot;database-node-click-target&quot; style=&quot;align-items: center ; box-sizing: border-box ; cursor: pointer ; display: flex ; min-height: 32px ; padding: 0px 16px 0px 12px ; position: relative ; font-size: 19px&quot;&gt;&lt;div class=&quot;database-key-value&quot; style=&quot;align-items: flex-start ; display: flex ; justify-content: flex-start ; padding: 6px 0px ; font-size: 19px&quot;&gt;&lt;span class=&quot;database-key&quot; style=&quot;display: inline-block ; margin-right: 8px ; font-size: 19px&quot;&gt;phonenumber&lt;/span&gt;&lt;/div&gt;&lt;/div&gt;" style="ellipse;whiteSpace=wrap;html=1;fontSize=19;strokeWidth=2;strokeColor=#000000;fontColor=#000000;fontStyle=0;fontFamily=Helvetica;" vertex="1" parent="1">
          <mxGeometry x="1450" y="1340" width="140" height="60" as="geometry" />
        </mxCell>
        <mxCell id="Z-Bdekt9p_D5V7MtKwq2-78" value="&lt;div class=&quot;database-node-click-target&quot; style=&quot;align-items: center ; box-sizing: border-box ; cursor: pointer ; display: flex ; min-height: 32px ; padding: 0px 16px 0px 12px ; position: relative ; font-size: 19px&quot;&gt;&lt;div class=&quot;database-key-value&quot; style=&quot;align-items: flex-start ; display: flex ; justify-content: flex-start ; padding: 6px 0px ; font-size: 19px&quot;&gt;&lt;span class=&quot;database-key&quot; style=&quot;display: inline-block ; margin-right: 8px ; font-size: 19px&quot;&gt;id&lt;/span&gt;&lt;/div&gt;&lt;/div&gt;" style="ellipse;whiteSpace=wrap;html=1;fontSize=19;strokeWidth=2;strokeColor=#000000;fontColor=#000000;fontStyle=0;fontFamily=Helvetica;" vertex="1" parent="1">
          <mxGeometry x="1200" y="1609" width="140" height="60" as="geometry" />
        </mxCell>
        <mxCell id="Z-Bdekt9p_D5V7MtKwq2-79" value="&lt;div class=&quot;database-node-click-target&quot; style=&quot;align-items: center ; box-sizing: border-box ; cursor: pointer ; display: flex ; min-height: 32px ; padding: 0px 16px 0px 12px ; position: relative ; font-size: 19px&quot;&gt;&lt;div class=&quot;database-key-value&quot; style=&quot;align-items: flex-start ; display: flex ; justify-content: flex-start ; padding: 6px 0px ; font-size: 19px&quot;&gt;&lt;span class=&quot;database-key&quot; style=&quot;display: inline-block ; margin-right: 8px ; font-size: 19px&quot;&gt;time&lt;/span&gt;&lt;/div&gt;&lt;/div&gt;" style="ellipse;whiteSpace=wrap;html=1;fontSize=19;strokeWidth=2;strokeColor=#000000;fontColor=#000000;fontStyle=0;fontFamily=Helvetica;" vertex="1" parent="1">
          <mxGeometry x="1020" y="1709" width="100" height="60" as="geometry" />
        </mxCell>
        <mxCell id="Z-Bdekt9p_D5V7MtKwq2-80" value="&lt;div class=&quot;database-node-click-target&quot; style=&quot;align-items: center ; box-sizing: border-box ; cursor: pointer ; display: flex ; min-height: 32px ; padding: 0px 16px 0px 12px ; position: relative ; font-size: 19px&quot;&gt;&lt;div class=&quot;database-key-value&quot; style=&quot;align-items: flex-start ; display: flex ; justify-content: flex-start ; padding: 6px 0px ; font-size: 19px&quot;&gt;&lt;span class=&quot;database-key&quot; style=&quot;display: inline-block ; margin-right: 8px ; font-size: 19px&quot;&gt;banner_event&lt;/span&gt;&lt;/div&gt;&lt;/div&gt;" style="ellipse;whiteSpace=wrap;html=1;fontSize=19;strokeWidth=2;strokeColor=#000000;fontColor=#000000;fontStyle=0;fontFamily=Helvetica;" vertex="1" parent="1">
          <mxGeometry x="1185" y="1830" width="170" height="60" as="geometry" />
        </mxCell>
        <mxCell id="Z-Bdekt9p_D5V7MtKwq2-81" style="edgeStyle=none;rounded=0;orthogonalLoop=1;jettySize=auto;html=1;exitX=0.5;exitY=1;exitDx=0;exitDy=0;entryX=0.5;entryY=1;entryDx=0;entryDy=0;fontFamily=Helvetica;fontSize=21;fontColor=#000000;endArrow=none;endFill=0;strokeColor=#000000;" edge="1" parent="1" source="Z-Bdekt9p_D5V7MtKwq2-84" target="Z-Bdekt9p_D5V7MtKwq2-78">
          <mxGeometry relative="1" as="geometry" />
        </mxCell>
        <mxCell id="Z-Bdekt9p_D5V7MtKwq2-82" style="edgeStyle=none;rounded=0;orthogonalLoop=1;jettySize=auto;html=1;exitX=0;exitY=0.5;exitDx=0;exitDy=0;entryX=1;entryY=0.5;entryDx=0;entryDy=0;fontFamily=Helvetica;fontSize=21;fontColor=#000000;endArrow=none;endFill=0;strokeColor=#000000;" edge="1" parent="1" source="Z-Bdekt9p_D5V7MtKwq2-84" target="Z-Bdekt9p_D5V7MtKwq2-79">
          <mxGeometry relative="1" as="geometry" />
        </mxCell>
        <mxCell id="Z-Bdekt9p_D5V7MtKwq2-83" style="edgeStyle=none;rounded=0;orthogonalLoop=1;jettySize=auto;html=1;exitX=0.5;exitY=1;exitDx=0;exitDy=0;entryX=0.5;entryY=0;entryDx=0;entryDy=0;fontFamily=Helvetica;fontSize=21;fontColor=#000000;endArrow=none;endFill=0;strokeColor=#000000;" edge="1" parent="1" source="Z-Bdekt9p_D5V7MtKwq2-84" target="Z-Bdekt9p_D5V7MtKwq2-80">
          <mxGeometry relative="1" as="geometry" />
        </mxCell>
        <mxCell id="Z-Bdekt9p_D5V7MtKwq2-84" value="&lt;b&gt;Banner&lt;/b&gt;" style="rounded=0;whiteSpace=wrap;html=1;fontFamily=Helvetica;fontSize=21;fontColor=#000000;strokeColor=#000000;" vertex="1" parent="1">
          <mxGeometry x="1190" y="1709" width="160" height="60" as="geometry" />
        </mxCell>
        <mxCell id="Z-Bdekt9p_D5V7MtKwq2-87" style="edgeStyle=none;rounded=0;orthogonalLoop=1;jettySize=auto;html=1;exitX=0;exitY=0.5;exitDx=0;exitDy=0;entryX=1;entryY=0.5;entryDx=0;entryDy=0;fontFamily=Helvetica;fontSize=21;fontColor=#000000;endArrow=none;endFill=0;strokeColor=#000000;" edge="1" parent="1" source="Z-Bdekt9p_D5V7MtKwq2-88" target="Z-Bdekt9p_D5V7MtKwq2-84">
          <mxGeometry relative="1" as="geometry" />
        </mxCell>
        <mxCell id="Z-Bdekt9p_D5V7MtKwq2-88" value="&lt;div class=&quot;database-node-click-target&quot; style=&quot;align-items: center ; box-sizing: border-box ; cursor: pointer ; display: flex ; min-height: 32px ; padding: 0px 16px 0px 12px ; position: relative ; font-size: 19px&quot;&gt;&lt;div class=&quot;database-key-value&quot; style=&quot;align-items: flex-start ; display: flex ; justify-content: flex-start ; padding: 6px 0px ; font-size: 19px&quot;&gt;&lt;span class=&quot;database-key&quot; style=&quot;display: inline-block ; margin-right: 8px ; font-size: 19px&quot;&gt;name&lt;/span&gt;&lt;/div&gt;&lt;/div&gt;" style="ellipse;whiteSpace=wrap;html=1;fontSize=19;strokeWidth=2;strokeColor=#000000;fontColor=#000000;fontStyle=0;fontFamily=Helvetica;" vertex="1" parent="1">
          <mxGeometry x="1410" y="1709" width="140" height="60" as="geometry" />
        </mxCell>
        <mxCell id="Z-Bdekt9p_D5V7MtKwq2-104" value="" style="edgeStyle=none;rounded=0;orthogonalLoop=1;jettySize=auto;html=1;fontColor=#000000;endArrow=none;endFill=0;strokeColor=#000000;fontSize=19;fontStyle=0;fontFamily=Helvetica;exitX=1;exitY=1;exitDx=0;exitDy=0;strokeWidth=2;" edge="1" parent="1" source="Z-Bdekt9p_D5V7MtKwq2-33" target="Z-Bdekt9p_D5V7MtKwq2-111">
          <mxGeometry relative="1" as="geometry">
            <mxPoint x="1560.9999999999995" y="640" as="sourcePoint" />
          </mxGeometry>
        </mxCell>
        <mxCell id="Z-Bdekt9p_D5V7MtKwq2-107" value="" style="edgeStyle=none;rounded=0;orthogonalLoop=1;jettySize=auto;html=1;fontColor=#000000;endArrow=none;endFill=0;strokeColor=#000000;fontSize=19;fontStyle=0;fontFamily=Helvetica;strokeWidth=2;" edge="1" parent="1" source="Z-Bdekt9p_D5V7MtKwq2-111" target="Z-Bdekt9p_D5V7MtKwq2-112">
          <mxGeometry relative="1" as="geometry" />
        </mxCell>
        <mxCell id="Z-Bdekt9p_D5V7MtKwq2-108" value="" style="edgeStyle=none;rounded=0;orthogonalLoop=1;jettySize=auto;html=1;fontColor=#000000;endArrow=none;endFill=0;strokeColor=#000000;fontSize=19;fontStyle=0;fontFamily=Helvetica;strokeWidth=2;" edge="1" parent="1" source="Z-Bdekt9p_D5V7MtKwq2-111" target="Z-Bdekt9p_D5V7MtKwq2-113">
          <mxGeometry relative="1" as="geometry" />
        </mxCell>
        <mxCell id="Z-Bdekt9p_D5V7MtKwq2-109" value="" style="edgeStyle=none;rounded=0;orthogonalLoop=1;jettySize=auto;html=1;fontColor=#000000;endArrow=none;endFill=0;strokeColor=#000000;fontSize=19;fontStyle=0;fontFamily=Helvetica;strokeWidth=2;" edge="1" parent="1" source="Z-Bdekt9p_D5V7MtKwq2-111" target="Z-Bdekt9p_D5V7MtKwq2-114">
          <mxGeometry relative="1" as="geometry" />
        </mxCell>
        <mxCell id="Z-Bdekt9p_D5V7MtKwq2-110" value="" style="edgeStyle=none;rounded=0;orthogonalLoop=1;jettySize=auto;html=1;fontColor=#000000;endArrow=none;endFill=0;strokeColor=#000000;fontSize=19;fontStyle=0;fontFamily=Helvetica;strokeWidth=2;" edge="1" parent="1" source="Z-Bdekt9p_D5V7MtKwq2-111" target="Z-Bdekt9p_D5V7MtKwq2-115">
          <mxGeometry relative="1" as="geometry" />
        </mxCell>
        <mxCell id="Z-Bdekt9p_D5V7MtKwq2-111" value="&lt;div class=&quot;database-node-click-target&quot; style=&quot;align-items: center; box-sizing: border-box; cursor: pointer; display: flex; min-height: 32px; padding: 0px 16px 0px 12px; position: relative; font-size: 19px;&quot;&gt;&lt;div class=&quot;database-key-value&quot; style=&quot;align-items: flex-start; display: flex; justify-content: flex-start; padding: 6px 0px; font-size: 19px;&quot;&gt;&lt;span class=&quot;database-key&quot; style=&quot;display: inline-block; margin-right: 8px; font-size: 19px;&quot;&gt;currentUser&lt;br style=&quot;font-size: 19px;&quot;&gt;&lt;/span&gt;&lt;/div&gt;&lt;/div&gt;" style="ellipse;whiteSpace=wrap;html=1;fontSize=19;strokeWidth=2;strokeColor=#000000;fontColor=#000000;fontStyle=0;fontFamily=Helvetica;" vertex="1" parent="1">
          <mxGeometry x="1400" y="590" width="130" height="60" as="geometry" />
        </mxCell>
        <mxCell id="Z-Bdekt9p_D5V7MtKwq2-112" value="&lt;div class=&quot;database-node-click-target&quot; style=&quot;align-items: center; box-sizing: border-box; cursor: pointer; display: flex; min-height: 32px; padding: 0px 16px 0px 12px; position: relative; font-size: 19px;&quot;&gt;&lt;div class=&quot;database-key-value&quot; style=&quot;align-items: flex-start; display: flex; justify-content: flex-start; padding: 6px 0px; font-size: 19px;&quot;&gt;&lt;span class=&quot;database-key&quot; style=&quot;display: inline-block; margin-right: 8px; font-size: 19px;&quot;&gt;displayName&lt;/span&gt;&lt;/div&gt;&lt;/div&gt;" style="ellipse;whiteSpace=wrap;html=1;fontSize=19;strokeWidth=2;strokeColor=#000000;fontColor=#000000;fontStyle=0;fontFamily=Helvetica;" vertex="1" parent="1">
          <mxGeometry x="1560" y="500" width="160" height="60" as="geometry" />
        </mxCell>
        <mxCell id="Z-Bdekt9p_D5V7MtKwq2-113" value="&lt;div class=&quot;database-node-click-target&quot; style=&quot;align-items: center; box-sizing: border-box; cursor: pointer; display: flex; min-height: 32px; padding: 0px 16px 0px 12px; position: relative; font-size: 19px;&quot;&gt;&lt;div class=&quot;database-key-value&quot; style=&quot;align-items: flex-start; display: flex; justify-content: flex-start; padding: 6px 0px; font-size: 19px;&quot;&gt;&lt;span class=&quot;database-key&quot; style=&quot;display: inline-block; margin-right: 8px; font-size: 19px;&quot;&gt;email&lt;/span&gt;&lt;/div&gt;&lt;/div&gt;" style="ellipse;whiteSpace=wrap;html=1;fontSize=19;strokeWidth=2;strokeColor=#000000;fontColor=#000000;fontStyle=0;fontFamily=Helvetica;" vertex="1" parent="1">
          <mxGeometry x="1640" y="560" width="160" height="60" as="geometry" />
        </mxCell>
        <mxCell id="Z-Bdekt9p_D5V7MtKwq2-114" value="&lt;div class=&quot;database-node-click-target&quot; style=&quot;align-items: center ; box-sizing: border-box ; cursor: pointer ; display: flex ; min-height: 32px ; padding: 0px 16px 0px 12px ; position: relative ; font-size: 19px&quot;&gt;&lt;div class=&quot;database-key-value&quot; style=&quot;align-items: flex-start ; display: flex ; justify-content: flex-start ; padding: 6px 0px ; font-size: 19px&quot;&gt;&lt;span class=&quot;database-key&quot; style=&quot;display: inline-block ; margin-right: 8px ; font-size: 19px&quot;&gt;&lt;h3 id=&quot;emailverified&quot; style=&quot;box-sizing: inherit ; margin: 0px -40px 0px -20px ; overflow: hidden ; text-overflow: ellipsis ; padding: 0px 40px 10px 20px ; border-bottom: none ; color: rgb(32 , 33 , 36) ; font-size: 19px&quot;&gt;&lt;span class=&quot;devsite-heading&quot; style=&quot;box-sizing: inherit ; font-size: 19px ; font-weight: normal&quot;&gt;email&lt;wbr style=&quot;box-sizing: inherit ; font-size: 19px&quot;&gt;Verified&lt;/span&gt;&lt;/h3&gt;&lt;/span&gt;&lt;/div&gt;&lt;/div&gt;" style="ellipse;whiteSpace=wrap;html=1;fontSize=19;strokeWidth=2;strokeColor=#000000;fontColor=#000000;fontStyle=0;fontFamily=Helvetica;" vertex="1" parent="1">
          <mxGeometry x="1630" y="660" width="210" height="60" as="geometry" />
        </mxCell>
        <mxCell id="Z-Bdekt9p_D5V7MtKwq2-115" value="&lt;div class=&quot;database-node-click-target&quot; style=&quot;align-items: center ; box-sizing: border-box ; cursor: pointer ; display: flex ; min-height: 32px ; padding: 0px 16px 0px 12px ; position: relative ; font-size: 19px&quot;&gt;&lt;div class=&quot;database-key-value&quot; style=&quot;align-items: flex-start ; display: flex ; justify-content: flex-start ; padding: 6px 0px ; font-size: 19px&quot;&gt;&lt;span class=&quot;database-key&quot; style=&quot;display: inline-block ; margin-right: 8px ; font-size: 19px&quot;&gt;&lt;h3 id=&quot;phonenumber&quot; style=&quot;box-sizing: inherit ; margin: 0px -40px 0px -20px ; overflow: hidden ; text-overflow: ellipsis ; padding: 0px 40px 10px 20px ; border-bottom: none ; color: rgb(32 , 33 , 36) ; font-size: 19px&quot;&gt;&lt;span class=&quot;devsite-heading&quot; style=&quot;box-sizing: inherit ; font-size: 19px ; font-weight: normal&quot;&gt;phone&lt;wbr style=&quot;box-sizing: inherit ; font-size: 19px&quot;&gt;Number&lt;/span&gt;&lt;/h3&gt;&lt;/span&gt;&lt;/div&gt;&lt;/div&gt;" style="ellipse;whiteSpace=wrap;html=1;fontSize=19;strokeWidth=2;strokeColor=#000000;fontColor=#000000;fontStyle=0;fontFamily=Helvetica;" vertex="1" parent="1">
          <mxGeometry x="1620" y="750" width="240" height="60" as="geometry" />
        </mxCell>
        <mxCell id="Z-Bdekt9p_D5V7MtKwq2-116" value="" style="edgeStyle=none;rounded=0;orthogonalLoop=1;jettySize=auto;html=1;fontColor=#000000;endArrow=none;endFill=0;strokeColor=#000000;fontSize=19;fontStyle=0;fontFamily=Helvetica;strokeWidth=2;" edge="1" parent="1" source="Z-Bdekt9p_D5V7MtKwq2-117" target="Z-Bdekt9p_D5V7MtKwq2-111">
          <mxGeometry relative="1" as="geometry" />
        </mxCell>
        <mxCell id="Z-Bdekt9p_D5V7MtKwq2-117" value="&lt;div class=&quot;database-node-click-target&quot; style=&quot;align-items: center ; box-sizing: border-box ; cursor: pointer ; display: flex ; min-height: 32px ; padding: 0px 16px 0px 12px ; position: relative ; font-size: 19px&quot;&gt;&lt;div class=&quot;database-key-value&quot; style=&quot;align-items: flex-start ; display: flex ; justify-content: flex-start ; padding: 6px 0px ; font-size: 19px&quot;&gt;&lt;span class=&quot;database-key&quot; style=&quot;display: inline-block ; margin-right: 8px ; font-size: 19px&quot;&gt;&lt;h3 id=&quot;photourl&quot; style=&quot;box-sizing: inherit ; margin: 0px -40px 0px -20px ; overflow: hidden ; text-overflow: ellipsis ; padding: 0px 40px 10px 20px ; border-bottom: none ; color: rgb(32 , 33 , 36) ; font-size: 19px&quot;&gt;&lt;span class=&quot;devsite-heading&quot; style=&quot;box-sizing: inherit ; font-size: 19px ; font-weight: normal&quot;&gt;photoURL&lt;/span&gt;&lt;/h3&gt;&lt;/span&gt;&lt;/div&gt;&lt;/div&gt;" style="ellipse;whiteSpace=wrap;html=1;fontSize=19;strokeWidth=2;strokeColor=#000000;fontColor=#000000;fontStyle=0;fontFamily=Helvetica;" vertex="1" parent="1">
          <mxGeometry x="1450" y="740" width="160" height="60" as="geometry" />
        </mxCell>
        <mxCell id="Z-Bdekt9p_D5V7MtKwq2-118" value="" style="edgeStyle=none;rounded=0;orthogonalLoop=1;jettySize=auto;html=1;fontColor=#000000;endArrow=none;endFill=0;strokeColor=#000000;fontSize=19;fontStyle=0;fontFamily=Helvetica;strokeWidth=2;" edge="1" parent="1" source="Z-Bdekt9p_D5V7MtKwq2-119" target="Z-Bdekt9p_D5V7MtKwq2-111">
          <mxGeometry relative="1" as="geometry" />
        </mxCell>
        <mxCell id="Z-Bdekt9p_D5V7MtKwq2-119" value="&lt;div class=&quot;database-node-click-target&quot; style=&quot;align-items: center ; box-sizing: border-box ; cursor: pointer ; display: flex ; min-height: 32px ; padding: 0px 16px 0px 12px ; position: relative ; font-size: 19px&quot;&gt;&lt;div class=&quot;database-key-value&quot; style=&quot;align-items: flex-start ; display: flex ; justify-content: flex-start ; padding: 6px 0px ; font-size: 19px&quot;&gt;&lt;span class=&quot;database-key&quot; style=&quot;display: inline-block ; margin-right: 8px ; font-size: 19px&quot;&gt;&lt;h3 id=&quot;photourl&quot; style=&quot;box-sizing: inherit ; margin: 0px -40px 0px -20px ; overflow: hidden ; text-overflow: ellipsis ; padding: 0px 40px 10px 20px ; border-bottom: none ; color: rgb(32 , 33 , 36) ; font-size: 19px&quot;&gt;&lt;span class=&quot;devsite-heading&quot; style=&quot;box-sizing: inherit ; font-size: 19px ; font-weight: normal&quot;&gt;accessToken&lt;/span&gt;&lt;/h3&gt;&lt;/span&gt;&lt;/div&gt;&lt;/div&gt;" style="ellipse;whiteSpace=wrap;html=1;fontSize=19;strokeWidth=2;strokeColor=#000000;fontColor=#000000;fontStyle=0;fontFamily=Helvetica;" vertex="1" parent="1">
          <mxGeometry x="1300" y="780" width="160" height="60" as="geometry" />
        </mxCell>
        <mxCell id="Z-Bdekt9p_D5V7MtKwq2-120" value="" style="edgeStyle=none;rounded=0;orthogonalLoop=1;jettySize=auto;html=1;fontFamily=Helvetica;fontSize=19;fontColor=#000000;endArrow=none;endFill=0;strokeColor=#000000;fontStyle=0;strokeWidth=2;" edge="1" parent="1" source="Z-Bdekt9p_D5V7MtKwq2-121" target="Z-Bdekt9p_D5V7MtKwq2-111">
          <mxGeometry relative="1" as="geometry" />
        </mxCell>
        <mxCell id="Z-Bdekt9p_D5V7MtKwq2-121" value="&lt;div class=&quot;database-node-click-target&quot; style=&quot;align-items: center ; box-sizing: border-box ; cursor: pointer ; display: flex ; min-height: 32px ; padding: 0px 16px 0px 12px ; position: relative ; font-size: 19px&quot;&gt;&lt;div class=&quot;database-key-value&quot; style=&quot;align-items: flex-start ; display: flex ; justify-content: flex-start ; padding: 6px 0px ; font-size: 19px&quot;&gt;&lt;span class=&quot;database-key&quot; style=&quot;display: inline-block ; margin-right: 8px ; font-size: 19px&quot;&gt;&lt;h3 id=&quot;photourl&quot; style=&quot;box-sizing: inherit ; margin: 0px -40px 0px -20px ; overflow: hidden ; text-overflow: ellipsis ; padding: 0px 40px 10px 20px ; border-bottom: none ; color: rgb(32 , 33 , 36) ; font-size: 19px&quot;&gt;&lt;span class=&quot;devsite-heading&quot; style=&quot;box-sizing: inherit ; font-size: 19px ; font-weight: normal&quot;&gt;createdAt&lt;/span&gt;&lt;/h3&gt;&lt;/span&gt;&lt;/div&gt;&lt;/div&gt;" style="ellipse;whiteSpace=wrap;html=1;fontSize=19;strokeWidth=2;strokeColor=#000000;fontColor=#000000;fontStyle=0;fontFamily=Helvetica;" vertex="1" parent="1">
          <mxGeometry x="1220" y="680" width="160" height="60" as="geometry" />
        </mxCell>
      </root>
    </mxGraphModel>
  </diagram>
</mxfile>
